<svg fill="none" height="24" viewBox="0 0 24 24" width="24" xmlns="http://www.w3.org/2000/svg" xmlns:xlink="http://www.w3.org/1999/xlink"><linearGradient id="a"><stop offset="0" stop-color="#008ee6"/><stop offset=".688" stop-color="#80dafe"/><stop offset=".7325" stop-color="#76d5fb"/><stop offset=".8071" stop-color="#5cc8f3"/><stop offset=".9026" stop-color="#32b2e6"/><stop offset="1" stop-color="#0099d6"/></linearGradient><linearGradient id="b" gradientUnits="userSpaceOnUse" x1="13.7696" x2="13.7696" xlink:href="#a" y1="14.4162" y2="5.48729"/><linearGradient id="c"><stop offset="0" stop-color="#440063" stop-opacity=".75"/><stop offset="1" stop-color="#420061" stop-opacity="0"/></linearGradient><radialGradient id="d" cx="0" cy="0" gradientTransform="matrix(13.5939 0 0 5.2418 20.5001 18.4645)" gradientUnits="userSpaceOnUse" r="1" xlink:href="#c"/><radialGradient id="e" cx="0" cy="0" gradientTransform="matrix(11.3409 0 0 2.75243 11.7656 5.48928)" gradientUnits="userSpaceOnUse" r="1"><stop offset="0" stop-color="#fff" stop-opacity=".5"/><stop offset="1" stop-color="#fff" stop-opacity="0"/></radialGradient><linearGradient id="f" gradientUnits="userSpaceOnUse" x1="-1.6604" x2="15.8388" y1="4.80754" y2="18.8856"><stop offset="0" stop-color="#8ea5a8"/><stop offset=".9987"/></linearGradient><linearGradient id="g"><stop offset="0" stop-color="#fff"/><stop offset=".2165" stop-color="#fffcf9"/><stop offset=".5184" stop-color="#fdf3e6"/><stop offset=".8689" stop-color="#fbe4c9"/><stop offset="1" stop-color="#faddbc"/></linearGradient><radialGradient id="h" cx="0" cy="0" gradientTransform="matrix(3.07184 0 0 3.98603 5.43538 11.9855)" gradientUnits="userSpaceOnUse" r="1" xlink:href="#g"/><radialGradient id="i" cx="0" cy="0" gradientTransform="matrix(6.78281224 .11458269 -.04104757 2.42984331 7.84511 14.6016)" gradientUnits="userSpaceOnUse" r="1" xlink:href="#g"/><linearGradient id="j" gradientUnits="userSpaceOnUse" x1="6.883" x2="6.883" xlink:href="#g" y1="15.5425" y2="11.509"/><linearGradient id="k"><stop offset=".00132565" stop-color="#fcd2a8"/><stop offset=".9987" stop-color="#fbb87a" stop-opacity="0"/></linearGradient><linearGradient id="l" gradientUnits="userSpaceOnUse" x1="7.65316" x2="3.99602" xlink:href="#k" y1="8.54863" y2="15.9486"/><linearGradient id="m" gradientUnits="userSpaceOnUse" x1="6.47151" x2="2.81437" xlink:href="#k" y1="7.96492" y2="15.3649"/><linearGradient id="n" gradientUnits="userSpaceOnUse" x1="8.08207" x2="8.03612" xlink:href="#k" y1="10.0835" y2="15.1067"/><radialGradient id="o" cx="0" cy="0" gradientTransform="matrix(6.66444 0 0 6.23981 8.63551 11.447)" gradientUnits="userSpaceOnUse" r="1" xlink:href="#g"/><linearGradient id="p" gradientUnits="userSpaceOnUse" x1=".054995" x2="13.1596" xlink:href="#a" y1="26.1902" y2="-3.56229"/><linearGradient id="q"><stop offset="0" stop-color="#bd2719"/><stop offset=".2151" stop-color="#d41a10"/><stop offset=".5049" stop-color="#ec0c07"/><stop offset=".774" stop-color="#fa0302"/><stop offset="1" stop-color="#f00"/></linearGradient><linearGradient id="r" gradientUnits="userSpaceOnUse" x1="13.7955" x2="12.9877" xlink:href="#q" y1="3.04693" y2="10.3694"/><linearGradient id="s" gradientUnits="userSpaceOnUse" x1="13.4081" x2="15.3038" y1="8.17401" y2="1.98423"><stop offset="0" stop-color="#fc8d41"/><stop offset=".0900324" stop-color="#fc7837"/><stop offset=".294" stop-color="#fd4d24"/><stop offset=".4922" stop-color="#fe2c14"/><stop offset=".6802" stop-color="#ff1409"/><stop offset=".854" stop-color="#ff0502"/><stop offset="1" stop-color="#f00"/></linearGradient><linearGradient id="t" gradientUnits="userSpaceOnUse" x1="13.1037" x2="14.6076" xlink:href="#q" y1="12.0855" y2="17.0404"/><radialGradient id="u" cx="0" cy="0" gradientTransform="matrix(16.9039 0 0 16.9043 11.9752 20.8079)" gradientUnits="userSpaceOnUse" r="1" xlink:href="#c"/><linearGradient id="v" gradientUnits="userSpaceOnUse" x1="8.18457" x2="16.0978" y1="19.6917" y2="16.7763"><stop offset="0" stop-color="#939fa1"/><stop offset=".1854" stop-color="#8e999b"/><stop offset=".4439" stop-color="#7f8788"/><stop offset=".7438" stop-color="#666b6b"/><stop offset="1" stop-color="#4d4d4c"/></linearGradient><radialGradient id="w" cx="0" cy="0" gradientTransform="matrix(-.00144954 2.77766962 -1.11765985 -.00058325 11.7528 18.8035)" gradientUnits="userSpaceOnUse" r="1"><stop offset="0" stop-color="#dee7e8" stop-opacity=".5"/><stop offset=".9111" stop-color="#dee7e8" stop-opacity="0"/></radialGradient><linearGradient id="x" gradientUnits="userSpaceOnUse" x1="12.0688" x2="11.6688" y1="19.8096" y2="14.6832"><stop offset="0" stop-opacity="0"/><stop offset="1"/></linearGradient><path d="m17.6057 5.29688h-11.21141l3.53714 10.20572h4.71997 6.4915v-3.7143-2.94857c0-1.96-1.5829-3.54285-3.5372-3.54285z" fill="url(#b)"/><path d="m17.6057 5.29688h-11.21141l3.53714 10.20572h4.71997 6.4915v-3.7143-2.94857c0-1.96-1.5829-3.54285-3.5372-3.54285z" fill="url(#d)" opacity=".75"/><path d="m17.6057 5.29688h-11.21141l3.53714 6.48572h11.20567v-2.94858c.0058-1.95429-1.5771-3.53714-3.5314-3.53714z" fill="url(#e)" opacity=".75"/><path d="m6.39429 5.46826c-1.89143 0-3.42285 1.53143-3.42285 3.42286v2.83428 3.6h6.85142v-3.6-2.83428c0-1.89143-1.53714-3.42286-3.42857-3.42286z" fill="url(#f)"/><path d="m4.30266 8.69092c-.16 0-.29143.12-.29143.27428v5.9657c0 .1486.13143.2743.29143.2743h5.45714v-3.5257-2.98858z" fill="url(#h)"/><path d="m9.7598 11.8224-1.62286-1.99428-4.12571 5.07998c0 .1657.12.2972.26857.2972h5.48z" fill="url(#i)"/><path d="m9.7598 11.8224-1.62286-1.99428-4.12571 5.07998c0 .1657.12.2972.26857.2972h5.48z" fill="url(#j)"/><path d="m6.00552 11.8794h.48571l-2.48 3.0571z" fill="url(#l)"/><path d="m6.00561 11.8797h.48572l-2.48571-2.89142z" fill="url(#m)"/><path d="m8.76548 13.068c-.33715.3885-.89715.3885-1.23429 0l-1.04-1.1886-.12571.1543.93143 1.1028c.22285.2572.52571.4629.85142.4629.32572 0 .62286-.2.85143-.4629l.76-.8914v-.2686z" fill="url(#n)"/><path d="m9.7599 11.6795v-2.98858h-5.48571c-.14857 0-.26857.13714-.26857.30286l3.52571 4.14852c.33714.4.89714.4 1.23429 0l.99428-1.1657z" fill="url(#o)"/><path d="m6.39432 5.29688c-1.95429 0-3.53714 1.58285-3.53714 3.53714v2.94858 3.7143h7.08v-3.7143-2.94858c0-1.95429-1.58857-3.53714-3.54286-3.53714zm3.24571 9.90852h-6.48571v-6.37138c0-1.78857 1.45714-3.24572 3.24571-3.24572 1.78858 0 3.24572 1.45715 3.24572 3.24572v6.37138z" fill="url(#p)"/><path d="m12.5942 12.6512v-9.79427l1.3543 1.35429v8.43998c0 .4743-.3028.8572-.68.8572-.3714 0-.6743-.3829-.6743-.8572z" fill="url(#r)"/><path d="m16.9028 2.85693h-4.3086v1.88572h4.3086z" fill="url(#s)"/><path d="m13.72 12.6454c0-.3085-.2-.56-.4457-.56s-.4457.2515-.4457.56c0 .3086.2.5601.4457.5601s.4457-.2515.4457-.5601z" fill="url(#t)"/><path d="m9.64001 15.2056h-6.48571v.2971h6.48571z" fill="url(#u)" opacity=".75"/><path d="m13.3258 15.4966h-2.84v5.6457h2.84z" fill="url(#v)"/><path d="m13.3258 15.4966h-2.84v5.6457h2.84z" fill="url(#w)" opacity=".5"/><path d="m10.4858 15.4966v4.4457c0 .08.6343.1428 1.4172.1428.7828 0 1.4171-.0628 1.4171-.1428v-4.4457z" fill="url(#x)" opacity=".5"/></svg>